<svg fill="none" xmlns="http://www.w3.org/2000/svg" viewBox="0 0 32 32"><path fill="#000" d="M0 0H32V32H0z"/><path fill="#fff" d="M1 1H10.3V10.3H1z"/><path fill="#000" d="M3.6 3.6H7.7V7.7H3.6z"/><path fill="#fff" d="M11.4 1H20.7V10.3H11.4z"/><path fill="#000" d="M13.9 3.6H18V7.7H13.9z"/><path fill="#fff" d="M21.7 1H31V10.3H21.7z"/><path fill="#000" d="M24.3 3.6H28.4V7.7H24.3z"/><path fill="#fff" d="M1 11.4H10.3V20.7H1z"/><path fill="#fff" d="M11.4 11.4H20.7V20.7H11.4z"/><path fill="#000" d="M13.9 13.9H18V18H13.9z"/><path fill="#fff" d="M21.7 11.4H31V20.7H21.7z"/><path fill="#fff" d="M1 21.7H10.3V31H1z"/><path fill="#fff" d="M11.4 21.7H20.7V31H11.4z"/><path fill="#000" d="M13.9 24.3H18V28.4H13.9z"/><path fill="#fff" d="M21.7 21.7H31V31H21.7z"/></svg>
